<?xml version="1.0" encoding="UTF-8"?> <svg xmlns="http://www.w3.org/2000/svg" width="240" height="240" viewBox="0 0 240 240" fill="none"><g clip-path="url(#clip0_180_687)"><path d="M149.46 103.012L120.345 86.1397C120.135 86.0186 119.878 86.0174 119.669 86.1386L90.3933 102.959C90.1827 103.079 90.0534 103.302 90.0534 103.546L90 128.873V137.373C90 137.615 90.1293 137.838 90.3387 137.96L119.503 154.775C119.712 154.895 119.971 154.895 120.179 154.775L149.439 137.933C149.648 137.812 149.779 137.588 149.779 137.346L149.798 103.599C149.798 103.357 149.67 103.133 149.46 103.012Z" fill="white"></path><path d="M149.102 120.285H90.6775V128.886H149.102V120.285Z" fill="#5AC4BE"></path><path fill-rule="evenodd" clip-rule="evenodd" d="M144.724 115.098C144.724 115.693 144.192 116.17 143.598 116.17C143.003 116.17 142.551 115.693 142.551 115.098L142.552 106.072C142.552 105.478 143.004 105.002 143.598 105.002C144.192 105.002 144.725 105.478 144.725 106.072L144.724 115.098ZM138.077 97.2347V118.909H149.121V103.599L138.077 97.2347ZM117.606 114.931C117.606 115.527 117.088 116.008 116.493 116.008C115.899 116.008 115.413 115.488 115.413 114.894L115.414 104.137C115.414 103.542 115.899 103.063 116.493 103.063C117.088 103.063 117.607 103.539 117.607 104.132L117.606 114.931ZM115.423 94.4116C115.423 93.8174 115.9 93.3347 116.495 93.3347C117.058 93.3347 117.555 93.7485 117.602 94.2978V98.5245L110.92 102.435V118.909H122.164L122.163 87.9711L120.005 86.7266L110.918 91.9593V99.1679L115.424 96.6119L115.423 94.4116ZM135.795 109.885H131.232L131.233 114.769C131.233 115.364 130.755 115.846 130.16 115.846C129.568 115.846 129.088 115.369 129.088 114.775V98.1966C129.088 97.6024 129.565 97.2362 130.159 97.2362C130.754 97.2362 131.232 97.7128 131.232 98.3066V103.881H135.795V95.9491L124.504 89.3635L124.501 118.909H135.795V109.885ZM95.2719 111.617V105.94C95.2719 105.344 95.7485 104.863 96.3423 104.863C96.9365 104.863 97.4238 105.34 97.4238 105.934V118.909H101.954L101.955 102.104C101.955 101.51 102.431 101.028 103.025 101.028C103.619 101.028 104.106 101.504 104.106 102.099L104.107 118.909H108.689V93.1427L90.7309 103.547V118.909H95.2719V111.617ZM90.6775 137.373L119.843 154.189L149.101 137.348V128.86L90.6775 128.875V137.373Z" fill="#007DC5"></path></g><defs><clipPath id="clip0_180_687"><rect width="60" height="69" fill="white" transform="translate(90 86)"></rect></clipPath></defs></svg> 