<?xml version="1.0" encoding="UTF-8"?> <svg xmlns="http://www.w3.org/2000/svg" width="240" height="240" viewBox="0 0 240 240" fill="none"><path d="M134.215 113.306C134.329 113.305 134.44 113.344 134.53 113.415C134.619 113.486 134.681 113.586 134.706 113.698L135.229 116.108H127.35C127.283 116.108 127.217 116.12 127.155 116.146C127.093 116.171 127.037 116.209 126.99 116.256C126.942 116.303 126.905 116.359 126.879 116.42C126.853 116.482 126.84 116.548 126.84 116.615V118.298H134.481V120.743H126.84V122.425C126.84 122.56 126.894 122.689 126.989 122.785C127.085 122.88 127.214 122.934 127.35 122.934H135.229L134.706 125.344C134.681 125.455 134.619 125.555 134.53 125.627C134.44 125.698 134.329 125.736 134.215 125.736H122.358C122.09 125.736 121.825 125.683 121.578 125.581C121.33 125.478 121.106 125.328 120.916 125.139C120.727 124.95 120.577 124.725 120.475 124.478C120.372 124.231 120.32 123.966 120.32 123.698V115.344C120.32 115.076 120.372 114.811 120.475 114.564C120.577 114.317 120.727 114.092 120.917 113.903C121.106 113.714 121.33 113.563 121.578 113.461C121.825 113.359 122.09 113.306 122.358 113.306H134.215Z" fill="#3679BC"></path><path d="M99.2702 113.306C99.3846 113.305 99.4957 113.344 99.585 113.415C99.6743 113.486 99.7364 113.586 99.7608 113.698L100.284 116.108H92.4046C92.3379 116.108 92.2717 116.12 92.2099 116.146C92.1482 116.171 92.092 116.209 92.0447 116.256C91.9974 116.303 91.9599 116.359 91.9342 116.421C91.9086 116.482 91.8954 116.548 91.8954 116.615V118.298H99.5363V120.743H91.8954V122.425C91.8954 122.56 91.949 122.689 92.0445 122.785C92.14 122.88 92.2696 122.934 92.4047 122.934H100.284L99.7608 125.344C99.7364 125.455 99.6744 125.555 99.585 125.627C99.4957 125.698 99.3846 125.736 99.2703 125.736H87.4126C87.145 125.736 86.88 125.683 86.6328 125.581C86.3855 125.478 86.1609 125.328 85.9717 125.139C85.7825 124.95 85.6324 124.725 85.53 124.478C85.4276 124.231 85.375 123.966 85.375 123.698V115.344C85.375 115.076 85.4277 114.811 85.5301 114.564C85.6325 114.317 85.7826 114.092 85.9718 113.903C86.161 113.714 86.3856 113.564 86.6328 113.461C86.88 113.359 87.145 113.306 87.4126 113.306H99.2702Z" fill="#3679BC"></path><path d="M167.992 115.995L165.985 120.743H170.14L167.992 115.995ZM166.628 113.306H173.077C173.178 113.308 173.276 113.339 173.36 113.395C173.443 113.451 173.509 113.53 173.55 113.622L179.186 125.735H172.409L171.252 123.189H164.946L163.864 125.735H160.97L166.155 113.622C166.194 113.529 166.26 113.449 166.344 113.393C166.428 113.337 166.527 113.307 166.628 113.306Z" fill="#3679BC"></path><path d="M83.2355 113.306H76.7156V125.735H83.2355V113.306Z" fill="#3679BC"></path><path d="M74.6783 113.664L74.3163 116.22C72.6736 115.943 71.0107 115.803 69.3447 115.802C66.4981 115.802 65.845 116.072 65.845 116.991C65.845 117.61 66.3514 117.918 67.1945 117.993L71.1101 118.339C73.3942 118.541 75.2536 119.593 75.2536 121.967C75.2536 124.237 73.445 125.367 72.3217 125.633C71.3758 125.857 69.8006 126.041 67.3887 126.041C64.9793 126.056 62.5744 125.833 60.2084 125.378L60.5709 122.821C62.3297 123.101 64.1076 123.244 65.8886 123.248C68.5491 123.248 69.6129 123.109 69.6129 121.954C69.6129 121.276 69.0154 121.009 68.2024 120.937L63.9556 120.56C61.6919 120.359 60 119.076 60 117.021C60 114.082 62.4714 113.001 67.7633 113.001C70.0848 112.986 72.4019 113.208 74.6783 113.664Z" fill="#3679BC"></path><path d="M118.384 118.298V125.197C115.724 125.757 113.013 126.04 110.295 126.041C102.532 126.041 101.37 123.077 101.37 119.509C101.37 116.659 102.479 113.001 110.295 113.001C112.704 112.987 115.11 113.209 117.475 113.666L117.113 116.231C115.45 115.949 113.768 115.806 112.082 115.802C112.082 115.802 107.632 115.431 107.632 119.574C107.632 123.295 109.802 123.499 110.845 123.499C111.366 123.487 111.885 123.438 112.398 123.352V120.336H110.845V118.298H118.384Z" fill="#3679BC"></path><path d="M159.951 113.306H153.431V125.735H159.951V113.306Z" fill="#3679BC"></path><path d="M151.29 113.306L151.29 124.945C151.286 125.157 151.197 125.36 151.045 125.508C150.892 125.656 150.687 125.738 150.475 125.735H143.639L139.575 117.231V125.735H136.824L136.824 114.121C136.824 113.905 136.91 113.698 137.063 113.545C137.216 113.392 137.423 113.306 137.639 113.306H144.488L148.539 121.784V113.306H151.29Z" fill="#3679BC"></path><path d="M180 114.655C180 114.947 179.914 115.233 179.751 115.476C179.589 115.719 179.357 115.908 179.087 116.019C178.817 116.13 178.519 116.158 178.233 116.099C177.946 116.041 177.684 115.898 177.479 115.69C177.274 115.482 177.135 115.217 177.081 114.93C177.027 114.643 177.059 114.346 177.174 114.077C177.289 113.809 177.481 113.58 177.727 113.421C177.972 113.262 178.259 113.18 178.551 113.184C178.938 113.189 179.307 113.346 179.578 113.621C179.85 113.897 180.001 114.268 180 114.655ZM177.585 113.864C177.398 114.082 177.295 114.359 177.294 114.646C177.292 114.89 177.362 115.129 177.496 115.332C177.629 115.536 177.82 115.696 178.044 115.791C178.268 115.887 178.515 115.914 178.755 115.869C178.994 115.824 179.215 115.71 179.389 115.539C179.563 115.369 179.683 115.151 179.734 114.913C179.784 114.675 179.763 114.427 179.673 114.201C179.583 113.975 179.428 113.78 179.228 113.642C179.027 113.504 178.79 113.428 178.547 113.424C178.364 113.42 178.182 113.457 178.015 113.533C177.849 113.61 177.702 113.723 177.585 113.864ZM179.137 115.527H178.838L178.397 114.881V115.527H178.154V113.817H178.444C178.577 113.805 178.709 113.838 178.82 113.911C178.881 113.957 178.93 114.016 178.963 114.085C178.996 114.153 179.011 114.228 179.008 114.304C179.016 114.418 178.979 114.53 178.906 114.616C178.832 114.703 178.728 114.758 178.615 114.77L179.137 115.527ZM178.474 114.548C178.662 114.548 178.761 114.463 178.761 114.3C178.761 114.129 178.667 114.052 178.453 114.052H178.397V114.548L178.474 114.548Z" fill="#1D1D1B"></path></svg> 