<svg xmlns="http://www.w3.org/2000/svg" viewBox="0 0 378 312" fill="#ec3434">
  <path d="M18.7737 311.83C18.7737 310.46 18.7737 309.377 18.7737 308.301C18.7737 271.683 18.8061 235.067 18.7305 198.449C18.7305 196.143 19.5242 194.947 21.3978 193.723C34.7561 185.005 48.0281 176.157 61.3324 167.347C62.1423 166.814 62.9684 166.303 64.2211 165.509V266.626C67.9684 264.206 71.1757 262.134 74.3832 260.056C111.294 236.137 148.21 212.23 185.078 188.242C186.768 187.143 187.788 187.659 189.127 188.524C213.738 204.41 238.349 220.301 262.997 236.132C278.537 246.112 294.142 255.999 309.719 265.919C310.54 266.441 311.393 266.914 312.608 267.632V165.683C313.628 166.145 314.271 166.346 314.817 166.694C328.909 175.765 343.012 184.826 357.029 194.022C357.882 194.582 358.439 196.23 358.444 197.378C358.531 225.386 358.531 253.394 358.536 281.396C358.536 290.734 358.515 300.067 358.493 309.404C358.493 310.117 358.434 310.829 358.39 311.803C357.434 311.857 356.565 311.945 355.696 311.945C336.079 311.972 316.463 312.021 296.847 311.945C295.351 311.939 293.662 311.379 292.392 310.558C257.771 288.271 223.187 265.93 188.63 243.539C186.973 242.468 185.817 242.37 184.095 243.501C149.819 266.006 115.5 288.439 81.159 310.845C80.2357 311.449 79.043 311.961 77.9735 311.961C58.989 312.021 39.9991 311.994 21.0145 311.977C20.399 311.977 19.7888 311.89 18.7845 311.819L18.7737 311.83Z"></path>
  <path d="M0.0542476 178.18C0.0542476 176.995 0.0542476 176.206 0.0542476 175.418C0.0542476 158.563 0.102843 141.705 0.000252723 124.851C-0.0159457 122.556 0.745384 121.305 2.619 120.097C35.5828 98.8933 68.5412 77.6776 101.376 56.2774C105.004 53.9117 107.417 54.0042 111.068 56.3753C133.794 71.1733 156.736 85.634 179.593 100.231C208.831 118.907 238.063 137.593 267.264 156.328C268.014 156.807 268.792 157.955 268.792 158.792C268.867 176.733 268.835 194.68 268.819 212.622C268.819 212.872 268.722 213.122 268.586 213.796C267.183 212.915 265.919 212.143 264.672 211.338C219.705 182.145 174.744 152.946 129.777 123.752C122.368 118.945 114.901 114.224 107.542 109.34C105.841 108.209 104.728 108.34 103.055 109.46C69.1514 132.209 35.194 154.876 1.24753 177.56C1.02615 177.707 0.777775 177.805 0.0542476 178.18Z"></path>
  <path d="M377.06 177.066C300.441 126.102 223.871 75.6659 144.537 28.6939C149.661 25.235 154.267 22.1242 158.872 19.0188C167.846 12.9713 176.842 6.96723 185.767 0.854424C187.295 -0.189761 188.359 -0.325722 190.033 0.734774C228.877 25.4471 267.812 50.0125 306.63 74.7682C329.728 89.5014 352.665 104.501 375.635 119.445C376.455 119.978 377.346 121.202 377.352 122.11C377.438 140.057 377.4 157.999 377.384 175.945C377.384 176.114 377.292 176.277 377.06 177.066Z"></path>
</svg>
