<?xml version="1.0" encoding="UTF-8"?> <svg xmlns="http://www.w3.org/2000/svg" width="240" height="240" viewBox="0 0 240 240" fill="none"><g clip-path="url(#clip0_178_582)"><path d="M65.6857 126.07H60.0037V113.007H67.6521L70.3573 119.527C70.3934 119.614 70.466 119.817 70.5701 120.132C70.6743 120.45 70.8285 120.886 71.0233 121.44C71.1455 121.004 71.2589 120.62 71.3676 120.293C71.4718 119.966 71.567 119.717 71.644 119.551L74.4171 113.007H82.0519V126.07H76.3699L76.4243 119.642C76.4243 119.251 76.4243 118.87 76.4288 118.5C76.4333 118.131 76.4423 117.749 76.4515 117.352C76.2385 118.028 75.9803 118.763 75.6811 119.56L75.6403 119.675L73.2253 126.07H68.8437L66.4016 119.817C66.2882 119.533 66.1705 119.209 66.0571 118.842C65.9439 118.476 65.7899 117.979 65.6041 117.352C65.6312 117.916 65.6539 118.397 65.6675 118.797C65.681 119.2 65.6857 119.523 65.6857 119.766V126.07ZM91.2364 119.551C91.2364 120.789 91.5444 121.695 92.1652 122.276C92.7859 122.854 93.7556 123.145 95.0742 123.145C96.3882 123.145 97.3487 122.857 97.9604 122.279C98.5721 121.704 98.8757 120.795 98.8757 119.551C98.8757 118.303 98.5721 117.392 97.9604 116.817C97.3487 116.238 96.3882 115.95 95.0742 115.95C93.7556 115.95 92.7859 116.241 92.1652 116.82C91.5444 117.401 91.2364 118.309 91.2364 119.551ZM84.9018 119.548C84.9018 117.419 85.8127 115.738 87.6296 114.509C89.4466 113.277 91.9295 112.662 95.0696 112.662C98.2006 112.662 100.674 113.277 102.487 114.509C104.304 115.738 105.21 117.419 105.21 119.548C105.21 121.67 104.304 123.351 102.487 124.583C100.674 125.816 98.2006 126.434 95.0696 126.434C91.9295 126.434 89.4466 125.816 87.6296 124.583C85.8127 123.351 84.9018 121.67 84.9018 119.548ZM95.8036 111.427V109.028H99.1205V111.427H95.8036ZM90.9916 111.427V109.028H94.3085V111.427H90.9916ZM108.087 126.07V113.007H114.367V122.6H122.904V126.07H108.087ZM125.464 126.07V113.007H131.744V122.6H140.281V126.07H125.464ZM142.841 126.07V113.007H158.468V116.132H149.121V117.876H157.023V120.874H149.121V122.891H158.853V126.07H142.841ZM167.983 118.621H170.834C171.835 118.621 172.524 118.53 172.904 118.349C173.285 118.17 173.475 117.855 173.475 117.404C173.475 116.941 173.285 116.62 172.904 116.441C172.524 116.259 171.781 116.168 170.675 116.168H167.983V118.621ZM161.785 126.07V113.007H171.137C174.069 113.007 176.162 113.301 177.413 113.885C178.668 114.47 179.293 115.43 179.293 116.768C179.293 117.564 179.035 118.227 178.523 118.754C178.011 119.281 177.218 119.696 176.144 120.005C177.236 120.156 178.029 120.462 178.523 120.913C179.021 121.365 179.284 122.028 179.32 122.903L179.429 124.723C179.429 124.735 179.434 124.75 179.438 124.765C179.465 125.286 179.656 125.558 180 125.583V126.07H173.661C173.543 125.755 173.457 125.483 173.398 125.25C173.339 125.016 173.312 124.835 173.312 124.705V123.399C173.312 122.727 173.113 122.252 172.714 121.976C172.32 121.701 171.631 121.564 170.648 121.564H167.983V126.07H161.785Z" fill="#0080C8"></path><path fill-rule="evenodd" clip-rule="evenodd" d="M179.991 127.811H60V131.292H179.991V127.811Z" fill="#0080C8"></path></g><defs><clipPath id="clip0_178_582"><rect width="120" height="22.32" fill="white" transform="translate(60 109)"></rect></clipPath></defs></svg> 