<?xml version="1.0" encoding="UTF-8"?> <svg xmlns="http://www.w3.org/2000/svg" width="240" height="240" viewBox="0 0 240 240" fill="none"><path d="M130.374 143.264C132.933 143.264 133.356 140.881 133.356 138.661C133.356 136.441 132.926 134.049 130.374 134.049C127.823 134.049 127.407 136.439 127.407 138.661C127.407 140.882 127.837 143.264 130.374 143.264ZM130.374 146.044C129.393 146.107 128.409 145.959 127.49 145.608C126.571 145.257 125.738 144.713 125.049 144.012C124.359 143.311 123.828 142.47 123.492 141.546C123.156 140.621 123.023 139.635 123.102 138.655C123.024 137.675 123.158 136.69 123.495 135.766C123.831 134.843 124.362 134.002 125.052 133.302C125.741 132.601 126.573 132.057 127.492 131.707C128.41 131.356 129.393 131.207 130.374 131.269C131.356 131.205 132.34 131.352 133.26 131.702C134.179 132.052 135.013 132.596 135.704 133.297C136.394 133.997 136.926 134.839 137.263 135.763C137.599 136.688 137.733 137.674 137.654 138.655C137.734 139.636 137.602 140.623 137.266 141.549C136.93 142.475 136.399 143.317 135.708 144.018C135.017 144.72 134.182 145.264 133.262 145.614C132.341 145.963 131.356 146.11 130.374 146.044ZM141.68 131.688V128.94L145.843 127.434V131.687H148.985V134.463H145.849V140.936C145.849 142.767 146.136 143.263 147.572 143.263C148.022 143.263 148.465 143.21 148.91 143.183V145.625C147.836 145.884 146.737 146.024 145.632 146.044C142.38 146.044 141.686 144.351 141.686 141.324V134.464H138.877V131.687L141.68 131.688ZM158.143 143.264C160.713 143.264 161.119 140.881 161.119 138.661C161.119 136.441 160.713 134.049 158.143 134.049C155.6 134.049 155.178 136.439 155.178 138.661C155.178 140.882 155.6 143.264 158.143 143.264ZM158.143 146.044C157.162 146.107 156.179 145.958 155.261 145.607C154.342 145.256 153.51 144.712 152.821 144.011C152.132 143.31 151.602 142.469 151.267 141.544C150.932 140.62 150.8 139.635 150.88 138.655C150.88 136.727 151.646 134.878 153.009 133.514C154.373 132.151 156.222 131.385 158.15 131.385C160.078 131.385 161.927 132.151 163.291 133.514C164.654 134.878 165.42 136.727 165.42 138.655C165.5 139.636 165.367 140.622 165.031 141.547C164.695 142.472 164.164 143.313 163.473 144.014C162.783 144.715 161.949 145.259 161.029 145.608C160.109 145.958 159.125 146.104 158.143 146.039M109.269 128.782H112.886C114.772 128.816 115.886 129.564 115.886 131.35C115.886 133.136 114.772 134.078 112.886 134.114H109.269V128.782ZM122.173 145.58L116.693 136.695C117.776 136.234 118.705 135.476 119.374 134.507C120.042 133.539 120.422 132.401 120.469 131.225C120.469 127.332 116.955 125.465 113.51 125.44H104.942V145.582H109.287V137.4H112.079L117.094 145.583L122.173 145.58ZM132.65 93L185.23 145.581H180.898L130.9 95.571L81.1 145.581H55L107.588 93H132.65Z" fill="#FE0009"></path></svg> 