<?xml version="1.0" encoding="UTF-8"?> <svg xmlns="http://www.w3.org/2000/svg" width="240" height="240" viewBox="0 0 240 240" fill="none"><g clip-path="url(#clip0_178_608)"><path fill-rule="evenodd" clip-rule="evenodd" d="M166.836 121.176H166.132V134.745H168.818C169.635 133.748 170.238 132.593 170.588 131.352C170.936 130.115 171.021 128.819 170.84 127.546C170.658 126.274 170.212 125.053 169.532 123.963C168.847 122.863 167.944 121.914 166.879 121.175L166.836 121.176ZM170.762 134.745H179.984V129.089C178.047 129.011 176.13 129.509 174.476 130.521C172.839 131.522 171.543 132.996 170.762 134.75V134.745ZM169.64 121.175C170.413 123.197 171.856 124.892 173.728 125.979C175.618 127.08 177.822 127.516 179.989 127.219V121.176L169.64 121.175Z" fill="#E0013F"></path><path fill-rule="evenodd" clip-rule="evenodd" d="M173.351 131.329C174.781 132.147 175.973 133.324 176.81 134.744H179.989V129.09C177.577 128.989 175.212 129.789 173.356 131.334L173.351 131.329ZM166.116 128.701V134.734H168.802C169.675 133.669 170.301 132.425 170.638 131.091C170.972 129.76 171.004 128.375 170.735 127.03C169.372 127.968 167.791 128.541 166.143 128.696L166.116 128.701ZM176.498 121.17H169.64C170.105 122.394 170.822 123.507 171.743 124.438C172.672 125.376 173.784 126.114 175.011 126.604C174.931 124.683 175.45 122.783 176.498 121.17Z" fill="#98014C"></path><path fill-rule="evenodd" clip-rule="evenodd" d="M159.859 127.96C161.677 126.087 162.922 123.733 163.447 121.176H149.606V134.745H163.447C162.914 132.185 161.66 129.831 159.833 127.96H159.859Z" fill="#67B2CA"></path><path fill-rule="evenodd" clip-rule="evenodd" d="M159.526 121.176H149.606V123.651C151.971 123.647 154.299 124.228 156.385 125.343C157.644 124.127 158.704 122.721 159.526 121.176ZM156.385 130.577C154.3 131.692 151.971 132.273 149.606 132.269V134.745H159.526C158.704 133.2 157.644 131.793 156.385 130.577Z" fill="#B3E2D8"></path><path fill-rule="evenodd" clip-rule="evenodd" d="M149.607 123.651V126.546C150.743 126.903 151.839 127.377 152.878 127.96C154.157 127.239 155.337 126.356 156.39 125.333C154.305 124.218 151.976 123.637 149.612 123.641L149.607 123.651ZM149.607 129.374V132.27C151.971 132.274 154.3 131.693 156.385 130.578C155.332 129.554 154.151 128.671 152.872 127.95C151.834 128.533 150.738 129.007 149.601 129.363L149.607 129.374Z" fill="#05759F"></path><path fill-rule="evenodd" clip-rule="evenodd" d="M166.132 118.58H180V112.72H166.132V118.58ZM166.132 105.01V111.453H180V105.021L166.132 105.01Z" fill="#A6D514"></path><path fill-rule="evenodd" clip-rule="evenodd" d="M166.132 116.735H180V113.971H166.132V116.735ZM166.132 105.021V109.83H180V105.021H166.132Z" fill="#40A629"></path><path fill-rule="evenodd" clip-rule="evenodd" d="M156.782 114.486C155.879 113.942 155.106 113.209 154.515 112.336C154.353 111.689 154.368 111.011 154.558 110.372C154.75 109.729 155.11 109.149 155.6 108.692C156.094 108.229 156.701 107.904 157.359 107.747C158.021 107.588 158.713 107.603 159.367 107.79C160.021 107.976 160.613 108.328 161.084 108.809C161.553 109.288 161.886 109.883 162.048 110.533C162.21 111.179 162.195 111.858 162.004 112.497C161.811 113.139 161.451 113.719 160.96 114.176C160.33 114.584 159.609 114.832 158.861 114.896C159.74 114.969 160.625 114.823 161.434 114.47C162.238 114.121 162.942 113.575 163.479 112.883V105H149.606V118.58H163.447V115.006C162.368 115.445 161.201 115.625 160.039 115.534C158.877 115.443 157.753 115.082 156.755 114.481L156.782 114.486Z" fill="#FFB300"></path><path fill-rule="evenodd" clip-rule="evenodd" d="M153.887 111.222C153.59 110.131 153.598 108.978 153.911 107.891C154.226 106.799 154.832 105.812 155.665 105.037H154.123C153.617 105.983 153.332 107.031 153.291 108.103C153.251 109.175 153.454 110.242 153.887 111.223V111.222ZM161.406 118.605H163.447V117.234C162.831 117.773 162.144 118.226 161.406 118.579V118.605ZM150.429 105.022H149.606V106.178L149.719 105.994C149.934 105.655 150.171 105.331 150.429 105.022ZM149.606 115.112V118.58H153.431C153.169 118.454 152.914 118.316 152.662 118.165C151.408 117.41 150.358 116.358 149.606 115.102V115.112Z" fill="#FF8000"></path><path fill-rule="evenodd" clip-rule="evenodd" d="M156.783 114.486C155.209 113.541 154.055 112.033 153.553 110.267C153.06 108.512 153.265 106.634 154.124 105.026H152.008C151.038 106.546 150.648 108.364 150.912 110.148C151.18 111.937 152.079 113.571 153.447 114.755C154.832 115.954 156.59 116.634 158.421 116.678C160.259 116.725 162.054 116.135 163.491 115.011C162.411 115.45 161.244 115.63 160.082 115.539C158.921 115.448 157.796 115.087 156.798 114.486H156.783ZM162.051 105.441C161.782 105.28 161.5 105.143 161.208 105.031H157.395C156.468 105.385 155.661 105.994 155.068 106.789C154.482 107.575 154.137 108.515 154.076 109.494C154.27 108.702 154.681 107.979 155.263 107.407C155.852 106.83 156.587 106.423 157.389 106.232C158.195 106.039 159.038 106.068 159.829 106.315C160.615 106.559 161.32 107.015 161.867 107.631C162.407 108.241 162.767 108.99 162.904 109.793C163.04 110.594 162.947 111.417 162.637 112.168C162.323 112.924 161.806 113.578 161.143 114.057C160.473 114.542 159.684 114.836 158.861 114.907C159.74 114.98 160.625 114.834 161.434 114.482C162.238 114.133 162.942 113.587 163.479 112.895V106.697C163.085 106.193 162.601 105.768 162.051 105.441Z" fill="#FF6600"></path><path fill-rule="evenodd" clip-rule="evenodd" d="M91.3118 130.861V131.282H89.7168V134.745H89.207V130.861H91.3118ZM92.5528 132.768C92.6914 132.8 92.8345 132.814 92.9776 132.811C93.5948 132.811 93.9704 132.517 93.9704 131.981C93.9704 131.444 93.6 131.218 93.0358 131.218C92.8737 131.214 92.7117 131.229 92.5528 131.261V132.768ZM92.0161 130.898C92.3411 130.847 92.6696 130.822 92.9985 130.825C93.3956 130.793 93.7908 130.907 94.1098 131.145C94.2249 131.246 94.316 131.372 94.3763 131.513C94.4367 131.654 94.4648 131.807 94.4586 131.96C94.4669 132.112 94.444 132.264 94.3915 132.406C94.3389 132.549 94.2578 132.68 94.153 132.79C93.9887 132.937 93.7968 133.051 93.5884 133.124C93.3801 133.197 93.1593 133.228 92.9389 133.216C92.8003 133.219 92.6618 133.206 92.526 133.178V134.756H91.9893V130.919L92.0154 130.898H92.0161ZM95.555 130.861L96.3443 132.522C96.4465 132.753 96.5381 132.984 96.635 133.21C96.7043 133.016 96.7796 132.785 96.881 132.511L97.4996 130.861H98.0363L97.2037 132.859C97.0146 133.378 96.7657 133.873 96.4621 134.334C96.3608 134.479 96.2264 134.598 96.0701 134.681C95.9135 134.764 95.7384 134.809 95.5602 134.813C95.462 134.816 95.3638 134.804 95.2696 134.776L95.324 134.366C95.3866 134.374 95.4492 134.374 95.5118 134.366C95.9255 134.366 96.1677 133.983 96.2907 133.699C96.3125 133.664 96.324 133.624 96.324 133.583C96.324 133.542 96.3125 133.502 96.2907 133.468L94.9692 130.84L95.555 130.861ZM101.64 130.861V134.744H101.125V131.282H99.2825V134.745H98.7727V130.861H101.64ZM105.695 130.861V134.744H105.185V131.282H103.342V134.745H102.826V130.861H105.695ZM108.831 133.131L108.444 132.012C108.359 131.76 108.3 131.529 108.241 131.302C108.181 131.533 108.117 131.77 108.042 132.007L107.655 133.131H108.831ZM107.532 133.526L107.118 134.75H106.582L107.929 130.867H108.546L109.9 134.75H109.363L108.938 133.526H107.532ZM112.837 130.861V132.585H112.999L114.358 130.861H114.976L113.472 132.642C113.74 132.68 113.99 132.795 114.188 132.974C114.387 133.153 114.525 133.389 114.583 133.646C114.707 134.022 114.851 134.39 115.018 134.75H114.481C114.34 134.454 114.219 134.149 114.121 133.836C114.075 133.583 113.938 133.356 113.735 133.199C113.531 133.038 113.275 132.957 113.015 132.968H112.848V134.75H112.344V130.866L112.837 130.861ZM116.018 132.827C116.018 133.657 116.48 134.403 117.285 134.403C118.09 134.403 118.558 133.673 118.558 132.79C118.558 132.017 118.144 131.214 117.291 131.214C116.437 131.214 116.018 131.981 116.018 132.832V132.827ZM119.1 132.763C119.1 134.098 118.268 134.808 117.258 134.808C116.249 134.808 115.475 134.015 115.475 132.837C115.475 131.659 116.259 130.798 117.318 130.798C118.376 130.798 119.1 131.612 119.1 132.763ZM123.386 133.037C123.359 132.511 123.322 131.844 123.327 131.36C123.193 131.817 123.027 132.306 122.828 132.837L122.092 134.718H121.705L121.061 132.869C120.882 132.374 120.728 131.871 120.599 131.361C120.599 131.844 120.556 132.496 120.524 133.079L120.417 134.745H119.944L120.223 130.861H120.879L121.555 132.742C121.716 133.221 121.856 133.646 121.953 134.051C122.054 133.657 122.194 133.231 122.372 132.742L123.08 130.861H123.736L123.982 134.744H123.483L123.381 133.038L123.386 133.037ZM127.941 130.861V134.744H127.425V131.282H125.583V134.745H125.068V130.861H127.941ZM131.072 133.131L130.684 132.012C130.6 131.76 130.54 131.529 130.481 131.302C130.421 131.533 130.357 131.77 130.282 132.007L129.896 133.131H131.072ZM129.772 133.526L129.359 134.75H128.822L130.169 130.867H130.787L132.141 134.75H131.604L131.179 133.526H129.772ZM133.537 130.861V132.485H135.46V130.861H135.976V134.744H135.46V132.921H133.537V134.745H133.027V130.861H133.537ZM137.668 130.861V132.496C137.668 133.105 137.668 133.62 137.619 134.141C137.818 133.736 138.065 133.316 138.356 132.853L139.639 130.856H140.176V134.739H139.693V133.084C139.693 132.454 139.693 131.996 139.741 131.507C139.524 131.959 139.278 132.396 139.005 132.816L137.764 134.745H137.227V130.862H137.668V130.861ZM142.464 130.041C142.464 130.225 142.55 130.403 142.824 130.403C143.097 130.403 143.162 130.231 143.183 130.041H143.575C143.548 130.425 143.312 130.661 142.813 130.661C142.722 130.674 142.629 130.667 142.541 130.642C142.452 130.617 142.37 130.574 142.299 130.515C142.23 130.457 142.173 130.385 142.134 130.303C142.095 130.221 142.074 130.132 142.072 130.041H142.464ZM141.814 130.861V132.496C141.814 133.105 141.814 133.62 141.765 134.141C141.964 133.736 142.211 133.316 142.501 132.853L143.785 130.855H144.322V134.739H143.839V133.084C143.839 132.453 143.839 131.996 143.887 131.507C143.671 131.959 143.425 132.396 143.151 132.816L141.911 134.744H141.373V130.861H141.814ZM140.509 119.694L144.923 112.452H141.578L138.892 117.255L136.244 112.452H132.871L137.286 119.694L132.57 127.314H135.959L138.881 122.138L141.824 127.314H145.213L140.482 119.694H140.509ZM120.975 127.314H130.98V124.723H123.944V121.175H129.933V118.58H123.94V115.032H130.976V112.441H120.969V127.304L120.975 127.314ZM107.993 115.043H111.963V127.314H114.927V115.043H118.87V112.452H107.966V115.043H107.993ZM103.745 120.455C103.745 122.521 103.659 123.609 103.02 124.276C102.778 124.537 102.481 124.745 102.151 124.885C101.82 125.026 101.463 125.096 101.103 125.091C100.745 125.096 100.39 125.026 100.061 124.886C99.7345 124.746 99.4412 124.538 99.2012 124.276C98.6273 123.651 98.4552 122.773 98.4552 120.598V119.205C98.4552 117.323 98.6057 116.136 99.202 115.468C99.4407 115.206 99.7341 115 100.061 114.863C100.39 114.726 100.746 114.662 101.103 114.675C101.462 114.665 101.819 114.73 102.15 114.867C102.481 115.004 102.778 115.21 103.02 115.468C103.594 116.115 103.746 117.182 103.746 119.1V120.456L103.745 120.455ZM101.103 112.09C100.343 112.065 99.5851 112.197 98.8778 112.478C98.1743 112.757 97.5366 113.179 97.0055 113.718C95.8778 114.87 95.5983 116.419 95.5125 118.59H93.2087V112.452H90.2437V127.314H93.2087V121.175H95.4909C95.5342 123.136 95.7488 124.796 97.0055 126.047C98.1167 127.093 99.5861 127.674 101.112 127.672C102.644 127.672 104.116 127.09 105.218 126.047C106.689 124.544 106.711 122.815 106.711 120.33V118.333C106.711 116.288 106.345 114.848 105.218 113.719C104.681 113.183 104.04 112.762 103.335 112.483C102.625 112.203 101.866 112.069 101.103 112.09ZM77.2733 119.194C77.2733 123.85 76.1993 124.723 74.6683 124.723H74.2435V127.314H75.4152C78.5732 127.314 80.1302 125.601 80.1302 119.363V115.043H83.7555V127.314H86.7205V112.452H77.2673V119.194H77.2733ZM64.8447 122.258L66.7729 116.835L68.6199 122.258H64.8447V122.258ZM65.5267 112.468L60 127.33H63.0932L64.0122 124.702H69.3831L70.2798 127.33H73.3729L67.847 112.453L65.5267 112.468V112.468Z" fill="#4D4D4D"></path></g><defs><clipPath id="clip0_178_608"><rect width="120" height="29.8137" fill="white" transform="translate(60 105)"></rect></clipPath></defs></svg> 