<?xml version="1.0" encoding="UTF-8"?> <svg xmlns="http://www.w3.org/2000/svg" width="240" height="240" viewBox="0 0 240 240" fill="none"><path d="M79.9962 116.6H76.6797V119.8H79.9962V116.6Z" fill="#E50040"></path><path d="M75.4369 116.6H72.1204V119.8H75.4369V116.6Z" fill="#E50040"></path><path d="M84.5565 112.2H81.24V115.4H84.5565V112.2Z" fill="#E50040"></path><path d="M79.9962 112.2H76.6797V115.4H79.9962V112.2Z" fill="#E50040"></path><path d="M75.4369 112.2H72.1204V115.4H75.4369V112.2Z" fill="#E50040"></path><path d="M70.8767 112.2H67.5602V115.4H70.8767V112.2Z" fill="#E50040"></path><path d="M84.5565 107.8H81.24V111H84.5565V107.8Z" fill="#575756"></path><path d="M79.9962 107.8H76.6797V111H79.9962V107.8Z" fill="#575756"></path><path d="M75.4369 107.8H72.1204V111H75.4369V107.8Z" fill="#4FC7B5"></path><path d="M70.8767 107.8H67.5602V111H70.8767V107.8Z" fill="#4FC7B5"></path><path d="M66.3165 107.8H63V111H66.3165V107.8Z" fill="#4FC7B5"></path><path d="M84.5565 103.399H81.24V106.6H84.5565V103.399Z" fill="#575756"></path><path d="M79.9962 103.399H76.6797V106.6H79.9962V103.399Z" fill="#575756"></path><path d="M75.4369 103.399H72.1204V106.6H75.4369V103.399Z" fill="#4FC7B5"></path><path d="M70.8767 103.399H67.5602V106.6H70.8767V103.399Z" fill="#4FC7B5"></path><path d="M66.3165 103.399H63V106.6H66.3165V103.399Z" fill="#4FC7B5"></path><path d="M79.9963 99H76.6798V102.2H79.9963V99Z" fill="#575756"></path><path d="M75.4369 99H72.1204V102.2H75.4369V99Z" fill="#4FC7B5"></path><path d="M70.8767 99H67.5602V102.2H70.8767V99Z" fill="#4FC7B5"></path><path d="M177 111V131C177 133 175.756 135 173.269 135H162.283V130.2H169.123C170.159 130.2 170.367 129.8 170.367 129V127.599H164.771C162.283 127.599 161.04 125.599 161.04 123.599V111.003L167.673 111V122.4C167.673 123.4 168.087 123.6 168.916 123.6H170.367V111H177Z" fill="#313131"></path><path d="M145.908 111C143.421 111 142.177 113 142.177 115V134.999H148.81L148.814 125H151.505V134.999H158.138V111H145.908ZM151.505 120.999H148.81V116.199C148.81 115.2 149.225 115.005 150.054 115.005L151.505 114.999V120.999Z" fill="#313131"></path><path d="M139.276 127V135H132.643V125H131.193C130.364 125 129.949 125.201 129.949 126.2V134.997H123.316L123.319 127C123.319 125 124.353 123.201 126.011 122.996C124.353 122.8 123.317 121 123.319 119L123.316 111H129.949V120.999H131.4C132.229 120.999 132.643 120.799 132.643 119.799V110.999H139.276V118.999C139.279 120.999 138.24 122.799 136.581 122.995C138.24 123.2 139.279 125 139.276 127Z" fill="#313131"></path><path d="M115.647 120.999H119.789V125H115.647V130.188L120.415 130.2V135H109.015V111.004L120.415 111V115.8H115.647V120.999Z" fill="#313131"></path><path d="M102.382 111H90.9817V134.998H97.6123V128.6H102.382C104.869 128.6 106.113 126.6 106.113 124.6V114.999C106.113 112.999 104.869 110.999 102.382 111ZM100.309 123.399C100.309 124.398 99.8944 124.599 99.0653 124.599H97.6139L97.6115 114.998H99.0645C99.8936 114.998 100.308 115.199 100.308 116.198L100.309 123.399Z" fill="#313131"></path></svg> 