<?xml version="1.0" encoding="UTF-8"?> <svg xmlns="http://www.w3.org/2000/svg" width="240" height="240" viewBox="0 0 240 240" fill="none"><path d="M77.3171 125.865C77.3171 128.702 75.7073 129.952 72.6341 129.952H60.2439L61.0244 127.212H72.5366C73.561 127.212 74.0488 126.923 74.0488 125.865V125.577C74.0488 124.471 73.5122 124.231 72.5366 124.231H64.6829C61.6098 124.231 60 122.981 60 120.144V120C60 117.163 61.6098 115.913 64.6829 115.913H76.6829L75.9024 118.606H64.7805C63.7561 118.606 63.2683 118.894 63.2683 119.952V120.096C63.2683 121.202 63.8049 121.442 64.7805 121.442H72.6341C75.7073 121.442 77.3171 122.692 77.3171 125.529V125.865ZM96.5366 129.952L95.7561 127.212H85.3659C84.3415 127.212 83.561 126.779 83.561 125.625V120.24C83.561 119.087 84.2927 118.654 85.3659 118.654H95.6585L96.439 115.962H85.2683C82.0976 115.962 80.3415 117.356 80.3415 120.288V125.673C80.3415 128.606 82.0976 130 85.2683 130H96.5366V129.952ZM113.61 124.038V130H116.829V115.913H113.61V121.346H102.634V115.913H99.4146V129.952H102.634V123.99H113.61V124.038ZM158.439 129.952L157.659 127.212H147.268C146.244 127.212 145.463 126.779 145.463 125.625V120.24C145.463 119.087 146.195 118.654 147.268 118.654H157.561L158.341 115.962H147.171C144 115.962 142.244 117.356 142.244 120.288V125.673C142.244 128.606 144 130 147.171 130H158.439V129.952ZM120.585 125.625C120.585 128.558 122.341 129.952 125.512 129.952H133.805C136.976 129.952 138.732 128.558 138.732 125.625V115.913H135.512V125.625C135.512 126.779 134.78 127.212 133.707 127.212H125.561C124.537 127.212 123.756 126.779 123.756 125.625V115.913H120.537V125.625H120.585ZM176.78 125.625C176.78 126.779 176.049 127.212 174.976 127.212H165.707C164.683 127.212 163.902 126.779 163.902 125.625V120.24C163.902 119.087 164.634 118.654 165.707 118.654H174.976C176 118.654 176.78 119.087 176.78 120.24V125.625ZM175.073 129.952C178.244 129.952 180 128.558 180 125.625V120.24C180 117.308 178.244 115.913 175.073 115.913H165.61C162.439 115.913 160.683 117.308 160.683 120.24V125.625C160.683 128.558 162.439 129.952 165.61 129.952H175.073ZM127.268 110L128.293 113.846H131.122L132.146 110H127.268ZM133.902 110L132.585 113.846H135.512L138 110H133.854H133.902ZM121.317 110L123.805 113.846H126.732L125.415 110H121.268H121.317Z" fill="#262626"></path></svg> 