<?xml version="1.0" encoding="UTF-8"?> <svg xmlns="http://www.w3.org/2000/svg" width="240" height="240" viewBox="0 0 240 240" fill="none"><path d="M167.513 104H155.832L147.334 136.461H157.19L158.005 132.277H164.408L165.106 136.461H175L167.513 104ZM159.247 124.22L161.187 111.747L163.283 124.22H159.247Z" fill="#0069B4"></path><path d="M145.055 104H134.966L129.729 115.776L129.689 104H120.144V136.461H129.689L129.729 123.485L135.704 136.461H145.947L137.411 119.649L145.055 104Z" fill="#0069B4"></path><path d="M96.2271 136.461H113.96V128.791H105.772V123.833H112.059V116.163H105.772V111.631H113.96V104H96.2271V136.461Z" fill="#0069B4"></path><path d="M78.4247 120.695L75.0491 104H65L73.1092 136.461H82.8487L92.4718 104H82.1111L78.4247 120.695Z" fill="#0069B4"></path></svg> 